<svg width="284" height="86" viewBox="0 0 284 86" fill="none" xmlns="http://www.w3.org/2000/svg">
<g filter="url(#filter0_n_43_61)">
<path d="M21.7601 84.3521C18.1761 84.3521 15.4454 83.3707 13.5681 81.4081C11.7761 79.3601 10.8801 76.7147 10.8801 73.4721V27.264H8.60691e-05V18.304H6.14409C8.36275 18.304 9.85609 17.8774 10.6241 17.024C11.4774 16.0854 11.9041 14.5067 11.9041 12.288V4.57764e-05H21.1201V18.304H35.5841V27.264H21.1201V75.3921H34.5601V84.3521H21.7601ZM52.0431 84.3521V18.304H62.2831V30.464H62.9231C64.1178 27.3067 66.2511 24.4907 69.3231 22.016C72.3951 19.5414 76.6191 18.304 81.9951 18.304H85.9631V28.544H79.9471C74.4004 28.544 70.0484 29.6107 66.8911 31.744C63.8191 33.792 62.2831 36.3947 62.2831 39.552V84.3521H52.0431ZM146.543 84.3521C142.703 84.3521 139.93 83.3281 138.223 81.2801C136.602 79.2321 135.578 76.6721 135.151 73.6H134.511C133.06 77.6961 130.671 80.7681 127.343 82.8161C124.015 84.8641 120.047 85.8881 115.439 85.8881C108.442 85.8881 102.98 84.0961 99.0551 80.5121C95.2151 76.9281 93.2951 72.0641 93.2951 65.92C93.2951 59.6907 95.5564 54.912 100.079 51.584C104.687 48.256 111.812 46.592 121.455 46.592H134.511V40.064C134.511 35.3707 133.231 31.7867 130.671 29.312C128.111 26.8374 124.186 25.6 118.895 25.6C114.884 25.6 111.514 26.496 108.783 28.288C106.138 30.08 103.919 32.4694 102.127 35.456L95.9831 29.696C97.7751 26.112 100.634 23.0827 104.559 20.608C108.484 18.048 113.434 16.7681 119.407 16.7681C127.428 16.7681 133.658 18.7307 138.095 22.656C142.532 26.5814 144.751 32.0427 144.751 39.0401V75.3921H152.303V84.3521H146.543ZM117.103 77.1841C119.663 77.1841 122.01 76.8854 124.143 76.2881C126.276 75.6907 128.111 74.8374 129.647 73.7281C131.183 72.6187 132.378 71.3387 133.231 69.8881C134.084 68.4374 134.511 66.8587 134.511 65.1521V54.272H120.943C115.055 54.272 110.746 55.1254 108.015 56.8321C105.37 58.5387 104.047 61.0134 104.047 64.2561V66.944C104.047 70.1867 105.199 72.7041 107.503 74.496C109.892 76.2881 113.092 77.1841 117.103 77.1841ZM191.494 85.8881C186.886 85.8881 182.747 85.0774 179.078 83.4561C175.409 81.8347 172.294 79.5307 169.734 76.5441C167.259 73.5574 165.339 69.9307 163.974 65.664C162.694 61.3974 162.054 56.6187 162.054 51.328C162.054 46.0374 162.694 41.2587 163.974 36.9921C165.339 32.7254 167.259 29.0987 169.734 26.112C172.294 23.1254 175.409 20.8214 179.078 19.2001C182.747 17.5787 186.886 16.7681 191.494 16.7681C198.065 16.7681 203.313 18.2187 207.238 21.12C211.249 23.936 214.235 27.648 216.198 32.2561L207.622 36.608C206.427 33.1947 204.465 30.5494 201.734 28.672C199.003 26.7947 195.59 25.856 191.494 25.856C188.422 25.856 185.734 26.368 183.43 27.392C181.126 28.3307 179.206 29.696 177.67 31.488C176.134 33.1947 174.982 35.2854 174.214 37.76C173.446 40.1494 173.062 42.7947 173.062 45.696V56.96C173.062 62.7627 174.598 67.5414 177.67 71.2961C180.827 74.9654 185.435 76.8001 191.494 76.8001C199.771 76.8001 205.745 72.9601 209.414 65.2801L216.838 70.272C214.705 75.0507 211.505 78.8481 207.238 81.6641C203.057 84.4801 197.809 85.8881 191.494 85.8881ZM255.375 85.8881C250.852 85.8881 246.756 85.0774 243.087 83.4561C239.503 81.8347 236.388 79.5307 233.743 76.5441C231.183 73.4721 229.178 69.8454 227.727 65.664C226.362 61.3974 225.679 56.6187 225.679 51.328C225.679 46.1227 226.362 41.3867 227.727 37.12C229.178 32.8534 231.183 29.2267 233.743 26.24C236.388 23.168 239.503 20.8214 243.087 19.2001C246.756 17.5787 250.852 16.7681 255.375 16.7681C259.812 16.7681 263.78 17.5787 267.279 19.2001C270.778 20.8214 273.764 23.0827 276.239 25.984C278.714 28.8 280.591 32.1707 281.871 36.0961C283.236 40.0214 283.919 44.3307 283.919 49.024V53.8881H236.431V56.96C236.431 59.776 236.858 62.4214 237.711 64.896C238.65 67.2854 239.93 69.376 241.551 71.168C243.258 72.9601 245.306 74.3681 247.695 75.3921C250.17 76.4161 252.943 76.9281 256.015 76.9281C260.196 76.9281 263.823 75.9467 266.895 73.9841C270.052 72.0214 272.484 69.2054 274.191 65.5361L281.487 70.784C279.354 75.3067 276.026 78.9761 271.503 81.7921C266.98 84.5227 261.604 85.8881 255.375 85.8881ZM255.375 25.344C252.559 25.344 249.999 25.856 247.695 26.88C245.391 27.8187 243.386 29.184 241.679 30.976C240.058 32.768 238.778 34.9014 237.839 37.376C236.9 39.7654 236.431 42.4107 236.431 45.312V46.208H272.911V44.8C272.911 38.912 271.29 34.2187 268.047 30.72C264.89 27.136 260.666 25.344 255.375 25.344Z" fill="url(#paint0_linear_43_61)" fill-opacity="0.65"/>
</g>
<defs>
<filter id="filter0_n_43_61" x="0" y="0" width="283.919" height="85.8879" filterUnits="userSpaceOnUse" color-interpolation-filters="sRGB">
<feFlood flood-opacity="0" result="BackgroundImageFix"/>
<feBlend mode="normal" in="SourceGraphic" in2="BackgroundImageFix" result="shape"/>
<feTurbulence type="fractalNoise" baseFrequency="5 5" stitchTiles="stitch" numOctaves="3" result="noise" seed="800" />
<feColorMatrix in="noise" type="luminanceToAlpha" result="alphaNoise" />
<feComponentTransfer in="alphaNoise" result="coloredNoise1">
<feFuncA type="discrete" tableValues="0 0 0 0 0 0 1 1 1 1 1 1 1 1 1 1 1 1 1 1 1 1 1 1 1 1 1 1 1 1 1 1 1 1 1 1 1 1 1 1 1 1 1 1 0 0 0 0 0 0 0 0 0 0 0 0 0 0 0 0 0 0 0 0 0 0 0 0 0 0 0 0 0 0 0 0 0 0 0 0 0 0 0 0 0 0 0 0 0 0 0 0 0 0 0 0 0 0 0 0 "/>
</feComponentTransfer>
<feComposite operator="in" in2="shape" in="coloredNoise1" result="noise1Clipped" />
<feFlood flood-color="rgba(25, 43, 194, 0.25)" result="color1Flood" />
<feComposite operator="in" in2="noise1Clipped" in="color1Flood" result="color1" />
<feMerge result="effect1_noise_43_61">
<feMergeNode in="shape" />
<feMergeNode in="color1" />
</feMerge>
</filter>
<linearGradient id="paint0_linear_43_61" x1="377.601" y1="-24.8147" x2="26.6006" y2="89.1853" gradientUnits="userSpaceOnUse">
<stop/>
<stop offset="0.550606" stop-color="#679AE5"/>
<stop offset="1" stop-color="#E06D57"/>
</linearGradient>
</defs>
</svg>
