<svg width="28" height="28" viewBox="0 0 28 28" fill="none" xmlns="http://www.w3.org/2000/svg">
<path d="M17.4998 21H11.6665" stroke="white" stroke-width="2" stroke-linecap="round" stroke-linejoin="round"/>
<path d="M20.9998 16.3333H11.6665" stroke="white" stroke-width="2" stroke-linecap="round" stroke-linejoin="round"/>
<path d="M4.66683 25.6667H23.3335C23.9523 25.6667 24.5458 25.4208 24.9834 24.9833C25.421 24.5457 25.6668 23.9522 25.6668 23.3333V4.66668C25.6668 4.04784 25.421 3.45435 24.9834 3.01676C24.5458 2.57918 23.9523 2.33334 23.3335 2.33334H9.3335C8.71466 2.33334 8.12116 2.57918 7.68358 3.01676C7.246 3.45435 7.00016 4.04784 7.00016 4.66668V23.3333C7.00016 23.9522 6.75433 24.5457 6.31675 24.9833C5.87916 25.4208 5.28567 25.6667 4.66683 25.6667ZM4.66683 25.6667C4.04799 25.6667 3.4545 25.4208 3.01691 24.9833C2.57933 24.5457 2.3335 23.9522 2.3335 23.3333V12.8333C2.3335 12.2145 2.57933 11.621 3.01691 11.1834C3.4545 10.7458 4.04799 10.5 4.66683 10.5H7.00016" stroke="white" stroke-width="2" stroke-linecap="round" stroke-linejoin="round"/>
<path d="M19.8332 7H12.8332C12.1888 7 11.6665 7.52233 11.6665 8.16667V10.5C11.6665 11.1443 12.1888 11.6667 12.8332 11.6667H19.8332C20.4775 11.6667 20.9998 11.1443 20.9998 10.5V8.16667C20.9998 7.52233 20.4775 7 19.8332 7Z" stroke="white" stroke-width="2" stroke-linecap="round" stroke-linejoin="round"/>
</svg>
