<svg width="513" height="737" viewBox="0 0 513 737" fill="none" xmlns="http://www.w3.org/2000/svg">
<path d="M423.947 71.13L530.178 105.713L423.947 71.13Z" fill="#BED4F4"/>
<path d="M423.947 71.13L530.178 105.713" stroke="#518BE1" stroke-width="1.199"/>
<path d="M453.603 578.993L338 537.917L453.603 578.993Z" fill="#BED4F4"/>
<path d="M453.603 578.994L338 537.917" stroke="#518BE1" stroke-width="1.199"/>
<path d="M398.129 675.273L340.659 540L398.129 675.273Z" fill="#BED4F4"/>
<path d="M398.129 675.273L340.659 540" stroke="#518BE1" stroke-width="1.199"/>
<path d="M347 332.668L443.01 372.524L347 332.668Z" fill="#BED4F4"/>
<path d="M347 332.668L443.01 372.524" stroke="#518BE1" stroke-width="1.199"/>
<path d="M437.998 378.274L517.075 310.795L437.998 378.274Z" fill="#BED4F4"/>
<path d="M437.998 378.274L517.075 310.795" stroke="#518BE1" stroke-width="1.199"/>
<path d="M433.998 370.59L521.356 426.94L433.998 370.59Z" fill="#BED4F4"/>
<path d="M433.998 370.59L521.356 426.94" stroke="#518BE1" stroke-width="1.199"/>
<path d="M417.203 76.1971L407.758 256.716L417.203 76.1971Z" fill="#BED4F4"/>
<path d="M417.203 76.1971L407.758 256.716" stroke="#518BE1" stroke-width="1.199"/>
<path d="M455.754 584.303L441.312 378.999L455.754 584.303Z" fill="#BED4F4"/>
<path d="M455.754 584.303L441.312 378.999" stroke="#518BE1" stroke-width="1.199"/>
<path d="M468.179 763.502L454.919 575L468.179 763.502Z" fill="#BED4F4"/>
<path d="M468.179 763.502L454.919 575" stroke="#518BE1" stroke-width="1.199"/>
<path d="M344.255 327.768L248.497 441.368L344.255 327.768Z" fill="#BED4F4"/>
<path d="M344.255 327.768L248.497 441.368" stroke="#518BE1" stroke-width="1.199"/>
<path d="M326.295 187.723L418.11 262.663L326.295 187.723Z" fill="#BED4F4"/>
<path d="M326.295 187.723L418.11 262.663" stroke="#518BE1" stroke-width="1.199"/>
<path d="M407.635 252.999L440.061 366.993L407.635 252.999Z" fill="#BED4F4"/>
<path d="M407.635 252.999L440.061 366.993" stroke="#518BE1" stroke-width="1.199"/>
<path d="M246.53 444.018L334.359 523.591L246.53 444.018Z" fill="#BED4F4"/>
<path d="M246.53 444.018L334.359 523.591" stroke="#518BE1" stroke-width="1.199"/>
<path d="M347.477 110.671L478.129 171.203L347.477 110.671Z" fill="#BED4F4"/>
<path d="M347.477 110.671L478.129 171.203" stroke="#518BE1" stroke-width="1.199"/>
<path d="M393.678 454.122L248.499 441.367L393.678 454.122Z" fill="#BED4F4"/>
<path d="M393.678 454.122L248.499 441.367" stroke="#518BE1" stroke-width="1.199"/>
<path d="M337.544 107.998L421.777 67.9032L337.544 107.998Z" fill="#BED4F4"/>
<path d="M337.544 107.998L421.777 67.9032" stroke="#518BE1" stroke-width="1.199"/>
<path d="M267.998 371.039L346.443 323.612Z" fill="#BED4F4"/>
<path d="M267.998 371.039L346.443 323.612" stroke="#518BE1" stroke-width="1.199"/>
<path d="M249.834 140.823L344.893 109.246L249.834 140.823Z" fill="#BED4F4"/>
<path d="M249.834 140.823L344.893 109.246" stroke="#518BE1" stroke-width="1.199"/>
<path d="M171.916 393.149L268.477 366.515L171.916 393.149Z" fill="#BED4F4"/>
<path d="M171.916 393.149L268.477 366.515" stroke="#518BE1" stroke-width="1.199"/>
<path d="M286.356 47.3526L350.231 108.553L286.356 47.3526Z" fill="#BED4F4"/>
<path d="M286.356 47.3526L350.231 108.553" stroke="#518BE1" stroke-width="1.199"/>
<path d="M239.87 278.221L272.956 367.138L239.87 278.221Z" fill="#BED4F4"/>
<path d="M239.87 278.221L272.956 367.138" stroke="#518BE1" stroke-width="1.199"/>
<path d="M347.99 113.187L325.431 192.249L347.99 113.187Z" fill="#BED4F4"/>
<path d="M347.99 113.187L325.431 192.249" stroke="#518BE1" stroke-width="1.199"/>
<path d="M271.609 370.73L245.004 448.524L271.609 370.73Z" fill="#BED4F4"/>
<path d="M271.609 370.73L245.004 448.524" stroke="#518BE1" stroke-width="1.199"/>
<path d="M490.573 -3.7238L409.374 70.6675L490.573 -3.7238Z" fill="#BED4F4"/>
<path d="M490.573 -3.72381L409.374 70.6675" stroke="#518BE1" stroke-width="1.199"/>
<path d="M413.694 257.931L343 331.695L413.694 257.931Z" fill="#BED4F4"/>
<path d="M413.694 257.931L343 331.695" stroke="#518BE1" stroke-width="1.199"/>
<path d="M247.624 147.263L292.951 45.1085L247.624 147.263Z" fill="#BED4F4"/>
<path d="M247.624 147.263L292.951 45.1085" stroke="#518BE1" stroke-width="1.199"/>
<path d="M167.595 398.512L232.261 275.718L167.595 398.512Z" fill="#BED4F4"/>
<path d="M167.595 398.512L232.261 275.718" stroke="#518BE1" stroke-width="1.199"/>
<path d="M485.505 -6.60141L292.019 47.0209L485.505 -6.60141Z" fill="#BED4F4"/>
<path d="M485.505 -6.60141L292.019 47.0209" stroke="#518BE1" stroke-width="1.199"/>
<path d="M417.964 263.186L235.056 276.822L417.964 263.186Z" fill="#BED4F4"/>
<path d="M417.964 263.186L235.056 276.822" stroke="#518BE1" stroke-width="1.199"/>
<path d="M338.194 182.539L231.146 274.665L338.194 182.539Z" fill="#BED4F4"/>
<path d="M338.194 182.539L231.146 274.665" stroke="#518BE1" stroke-width="1.199"/>
<path d="M258.439 438.997L146.785 525.482L258.439 438.997Z" fill="#BED4F4"/>
<path d="M258.439 438.997L146.785 525.482" stroke="#518BE1" stroke-width="1.199"/>
<path d="M317.49 186.042L545.396 111.37L317.49 186.042Z" fill="#BED4F4"/>
<path d="M317.49 186.042L545.396 111.37" stroke="#518BE1" stroke-width="1.199"/>
<path d="M472.266 171L510.998 318L472.266 171Z" fill="#BED4F4"/>
<path d="M472.266 171L510.998 318" stroke="#518BE1" stroke-width="1.199"/>
<path d="M442.546 373.097L336.781 539.821L442.546 373.097Z" fill="#BED4F4"/>
<path d="M442.546 373.097L336.781 539.821" stroke="#518BE1" stroke-width="1.199"/>
<path d="M558.316 561L395.45 672.614L558.316 561Z" fill="#BED4F4"/>
<path d="M558.316 561L395.45 672.614" stroke="#518BE1" stroke-width="1.199"/>
<path d="M348.729 529.519C346.37 523.875 339.883 521.212 334.239 523.57C328.595 525.928 325.932 532.415 328.29 538.059C330.648 543.703 337.135 546.367 342.779 544.009C348.423 541.651 351.087 535.163 348.729 529.519Z" fill="#BED4F4" stroke="#518BE1" stroke-width="1.2"/>
<path d="M407.867 68.3408C409.518 74.2307 415.631 77.6671 421.521 76.0162C427.411 74.3653 430.847 68.2523 429.196 62.3625C427.545 56.4726 421.432 53.0362 415.543 54.6871C409.653 56.338 406.216 62.4509 407.867 68.3408Z" fill="#BED4F4" stroke="#518BE1" stroke-width="1.2"/>
<path d="M465.709 576.219C463.35 570.575 456.863 567.911 451.219 570.269C445.575 572.627 442.912 579.115 445.27 584.759C447.628 590.403 454.115 593.066 459.759 590.708C465.403 588.35 468.067 581.863 465.709 576.219Z" fill="#BED4F4" stroke="#518BE1" stroke-width="1.2"/>
<path d="M407.707 665.219C405.349 659.575 398.862 656.912 393.218 659.27C387.574 661.628 384.91 668.115 387.268 673.759C389.626 679.403 396.114 682.067 401.758 679.709C407.402 677.35 410.065 670.863 407.707 665.219Z" fill="#BED4F4" stroke="#518BE1" stroke-width="1.2"/>
<path d="M333.565 329.704C334.91 335.672 340.838 339.419 346.805 338.074C352.772 336.728 356.519 330.801 355.174 324.834C353.829 318.866 347.901 315.12 341.934 316.465C335.967 317.81 332.22 323.737 333.565 329.704Z" fill="#BED4F4" stroke="#518BE1" stroke-width="1.2"/>
<path d="M400.662 264.701C402.313 270.591 408.425 274.028 414.315 272.377C420.205 270.726 423.642 264.613 421.991 258.723C420.34 252.833 414.227 249.397 408.337 251.048C402.447 252.699 399.011 258.812 400.662 264.701Z" fill="#BED4F4" stroke="#518BE1" stroke-width="1.2"/>
<path d="M499.989 316.642C501.64 322.532 507.753 325.968 513.643 324.318C519.532 322.667 522.969 316.554 521.318 310.664C519.667 304.774 513.554 301.338 507.664 302.988C501.774 304.639 498.338 310.752 499.989 316.642Z" fill="#BED4F4" stroke="#518BE1" stroke-width="1.2"/>
<path d="M451.199 369.838C448.841 364.194 442.354 361.53 436.71 363.888C431.066 366.246 428.402 372.733 430.76 378.378C433.119 384.022 439.606 386.685 445.25 384.327C450.894 381.969 453.557 375.482 451.199 369.838Z" fill="#BED4F4" stroke="#518BE1" stroke-width="1.2"/>
<path d="M318.241 187.162C319.892 193.052 326.005 196.489 331.895 194.838C337.785 193.187 341.221 187.074 339.57 181.184C337.919 175.294 331.806 171.858 325.917 173.509C320.027 175.159 316.59 181.272 318.241 187.162Z" fill="#BED4F4" stroke="#518BE1" stroke-width="1.2"/>
<path d="M238.204 442.941C239.549 448.909 245.477 452.656 251.444 451.31C257.411 449.965 261.158 444.038 259.813 438.071C258.468 432.103 252.54 428.356 246.573 429.702C240.606 431.047 236.859 436.974 238.204 442.941Z" fill="#BED4F4" stroke="#518BE1" stroke-width="1.2"/>
<path d="M239.969 146.635C241.62 152.524 247.733 155.961 253.623 154.31C259.513 152.659 262.949 146.546 261.298 140.656C259.647 134.766 253.535 131.33 247.645 132.981C241.755 134.632 238.318 140.745 239.969 146.635Z" fill="#BED4F4" stroke="#518BE1" stroke-width="1.2"/>
<path d="M161.714 398.151C163.059 404.119 168.987 407.865 174.954 406.52C180.921 405.175 184.668 399.248 183.323 393.28C181.978 387.313 176.05 383.566 170.083 384.911C164.116 386.257 160.369 392.184 161.714 398.151Z" fill="#BED4F4" stroke="#518BE1" stroke-width="1.2"/>
<path d="M279.912 50.4147C281.563 56.3046 287.676 59.7409 293.566 58.0901C299.456 56.4392 302.892 50.3262 301.241 44.4363C299.59 38.5465 293.477 35.1101 287.588 36.761C281.698 38.4118 278.261 44.5248 279.912 50.4147Z" fill="#BED4F4" stroke="#518BE1" stroke-width="1.2"/>
<path d="M339.158 111.892C340.809 117.782 346.922 121.218 352.811 119.567C358.701 117.917 362.138 111.804 360.487 105.914C358.836 100.024 352.723 96.5875 346.833 98.2384C340.943 99.8892 337.507 106.002 339.158 111.892Z" fill="#BED4F4" stroke="#518BE1" stroke-width="1.2"/>
<path d="M262.696 369.176C264.041 375.143 269.969 378.89 275.936 377.545C281.903 376.2 285.65 370.273 284.305 364.305C282.96 358.338 277.032 354.591 271.065 355.936C265.098 357.281 261.351 363.209 262.696 369.176Z" fill="#BED4F4" stroke="#518BE1" stroke-width="1.2"/>
<path d="M464.861 177.3C466.512 183.19 472.625 186.626 478.515 184.975C484.404 183.324 487.841 177.211 486.19 171.321C484.539 165.432 478.426 161.995 472.536 163.646C466.646 165.297 463.21 171.41 464.861 177.3Z" fill="#BED4F4" stroke="#518BE1" stroke-width="1.2"/>
<path d="M401.747 452.192C399.389 446.548 392.902 443.885 387.258 446.243C381.614 448.601 378.95 455.088 381.308 460.732C383.667 466.376 390.154 469.04 395.798 466.682C401.442 464.323 404.105 457.836 401.747 452.192Z" fill="#BED4F4" stroke="#518BE1" stroke-width="1.2"/>
<path d="M474.681 -4.17748C476.332 1.71239 482.445 5.14877 488.335 3.4979C494.225 1.84702 497.661 -4.26597 496.01 -10.1558C494.359 -16.0457 488.246 -19.4821 482.357 -17.8312C476.467 -16.1803 473.03 -10.0674 474.681 -4.17748Z" fill="#BED4F4" stroke="#518BE1" stroke-width="1.2"/>
<path d="M225.727 279.03C227.378 284.92 233.491 288.356 239.381 286.705C245.271 285.054 248.707 278.941 247.056 273.052C245.405 267.162 239.292 263.725 233.402 265.376C227.513 267.027 224.076 273.14 225.727 279.03Z" fill="#BED4F4" stroke="#518BE1" stroke-width="1.2"/>
<path d="M141.815 529.01C143.16 534.977 149.088 538.724 155.055 537.379C161.022 536.034 164.769 530.106 163.424 524.139C162.079 518.172 156.152 514.425 150.184 515.77C144.217 517.115 140.47 523.043 141.815 529.01Z" fill="#BED4F4" stroke="#518BE1" stroke-width="1.2"/>
</svg>
