<svg width="28" height="28" viewBox="0 0 28 28" fill="none" xmlns="http://www.w3.org/2000/svg">
<path d="M17.4998 2.33334H6.99984C6.381 2.33334 5.78751 2.57918 5.34992 3.01676C4.91234 3.45435 4.6665 4.04784 4.6665 4.66668V23.3333C4.6665 23.9522 4.91234 24.5457 5.34992 24.9833C5.78751 25.4208 6.381 25.6667 6.99984 25.6667H20.9998C21.6187 25.6667 22.2122 25.4208 22.6498 24.9833C23.0873 24.5457 23.3332 23.9522 23.3332 23.3333V8.16668L17.4998 2.33334Z" stroke="white" stroke-width="2" stroke-linecap="round" stroke-linejoin="round"/>
<path d="M16.3335 2.33334V7.00001C16.3335 7.61885 16.5793 8.21234 17.0169 8.64993C17.4545 9.08751 18.048 9.33334 18.6668 9.33334H23.3335" stroke="white" stroke-width="2" stroke-linecap="round" stroke-linejoin="round"/>
<path d="M11.6668 10.5H9.3335" stroke="white" stroke-width="2" stroke-linecap="round" stroke-linejoin="round"/>
<path d="M18.6668 15.1667H9.3335" stroke="white" stroke-width="2" stroke-linecap="round" stroke-linejoin="round"/>
<path d="M18.6668 19.8333H9.3335" stroke="white" stroke-width="2" stroke-linecap="round" stroke-linejoin="round"/>
</svg>
